<?xml version="1.0" encoding="UTF-8"?>
<svg width="123" height="49" viewBox="0 0 123 49" fill="none" xmlns="http://www.w3.org/2000/svg">
  <path d="M84.0103 25.7161H122.786V9.39266H84.0103V25.7161Z" fill="white"/>
  <path d="M14.1787 14.2067C14.1787 11.0947 11.6607 8.57666 8.54866 8.57666C5.43666 8.57666 2.91866 11.0947 2.91866 14.2067C2.91866 17.3187 5.43666 19.8367 8.54866 19.8367H14.1787V14.2067Z" fill="#36C5F0"/>
  <path d="M14.1787 25.0679C14.1787 28.1799 16.6967 30.6979 19.8087 30.6979C22.9207 30.6979 25.4387 28.1799 25.4387 25.0679V8.57666H19.8087C16.6967 8.57666 14.1787 11.0947 14.1787 14.2067V25.0679Z" fill="#2EB67D"/>
  <path d="M14.1787 39.2746C14.1787 42.3866 11.6607 44.9046 8.54866 44.9046C5.43666 44.9046 2.91866 42.3866 2.91866 39.2746V33.6446H8.54866C11.6607 33.6446 14.1787 36.1626 14.1787 39.2746Z" fill="#ECB22E"/>
  <path d="M0 39.2746C0 42.3866 2.518 44.9046 5.63 44.9046C8.742 44.9046 11.26 42.3866 11.26 39.2746V33.6446H5.63C2.518 33.6446 0 36.1626 0 39.2746Z" fill="#E01E5A"/>
</svg>
