<?xml version="1.0" encoding="UTF-8"?>
<svg width="62" height="24" viewBox="0 0 62 24" fill="none" xmlns="http://www.w3.org/2000/svg">
  <path d="M27.7 12.9c0 3.1-2.4 5.3-5.3 5.3s-5.3-2.2-5.3-5.3c0-3.1 2.4-5.3 5.3-5.3s5.3 2.2 5.3 5.3zm-2.3 0c0-1.9-1.4-3.2-3-3.2s-3 1.3-3 3.2c0 1.9 1.4 3.2 3 3.2s3-1.4 3-3.2z" fill="#EA4335"/>
  <path d="M41.1 12.9c0 3.1-2.4 5.3-5.3 5.3s-5.3-2.2-5.3-5.3c0-3.1 2.4-5.3 5.3-5.3s5.3 2.2 5.3 5.3zm-2.3 0c0-1.9-1.4-3.2-3-3.2s-3 1.3-3 3.2c0 1.9 1.4 3.2 3 3.2s3-1.4 3-3.2z" fill="#FBBC04"/>
  <path d="M53.7 7.8v9.8c0 4-2.4 5.7-5.2 5.7-2.7 0-4.3-1.8-4.9-3.2l2.1-.9c.4.9 1.3 2 2.8 2 1.8 0 3-1.1 3-3.2v-.8h-.1c-.5.7-1.5 1.3-2.8 1.3-2.7 0-5.1-2.3-5.1-5.3 0-3 2.4-5.3 5.1-5.3 1.3 0 2.3.6 2.8 1.2h.1V7.8h2.3zm-2.1 5.1c0-1.8-1.2-3.2-2.8-3.2-1.6 0-2.9 1.3-2.9 3.2 0 1.8 1.3 3.1 2.9 3.1 1.6 0 2.8-1.3 2.8-3.1z" fill="#4285F4"/>
  <path d="M14.8 11.5c0-.7-.1-1.5-.2-2.2H7.5v4.1h4.1c-.2 1-.8 1.9-1.6 2.4v2h2.6c1.5-1.4 2.4-3.5 2.4-6.3z" fill="#4285F4"/>
  <path d="M7.5 18c2.2 0 4-.7 5.3-1.9l-2.6-2c-.7.5-1.6.7-2.7.7-2.1 0-3.9-1.4-4.5-3.3H.3v2.1c1.3 2.6 4 4.4 7.2 4.4z" fill="#34A853"/>
  <path d="M3 11.4c-.2-.5-.3-1.1-.3-1.7s.1-1.2.3-1.7V5.9H.3C-.1 7 0 8.2 0 9.7s.2 2.7.3 3.8L3 11.4z" fill="#FBBC04"/>
  <path d="M7.5 5.4c1.2 0 2.2.4 3.1 1.2l2.3-2.3C11.5 3.1 9.7 2.4 7.5 2.4c-3.2 0-5.9 1.8-7.2 4.4l2.7 2.1c.6-1.9 2.4-3.3 4.5-3.3z" fill="#EA4335"/>
</svg>
