<?xml version="1.0" encoding="UTF-8"?>
<svg width="106" height="25" viewBox="0 0 106 25" fill="none" xmlns="http://www.w3.org/2000/svg">
  <path d="M97.3 0H8.7C3.9 0 0 3.9 0 8.7v7.6C0 21.1 3.9 25 8.7 25h88.6c4.8 0 8.7-3.9 8.7-8.7V8.7C106 3.9 102.1 0 97.3 0z" fill="#00B67A"/>
  <path d="M49.3 16.3V8.8h2.4l3.6 5.4V8.8h1.8v7.5h-2.4l-3.6-5.4v5.4h-1.8zm12.4.2c-2.2 0-3.9-1.7-3.9-3.9 0-2.2 1.7-3.9 3.9-3.9 2.2 0 3.9 1.7 3.9 3.9 0 2.2-1.7 3.9-3.9 3.9zm0-6.2c-1.3 0-2.3 1-2.3 2.3 0 1.3 1 2.3 2.3 2.3 1.3 0 2.3-1 2.3-2.3 0-1.3-1-2.3-2.3-2.3zm8.2 6h-1.8V8.8h1.8v7.5zm4.1 0h-1.8V8.8h3.6c1.8 0 2.8 1.1 2.8 2.4 0 1-.6 1.8-1.5 2.1l1.6 3h-2l-1.5-2.8h-1.2v2.8zm0-4.3h1.8c.7 0 1.1-.4 1.1-.9s-.4-.9-1.1-.9h-1.8v1.8zm10.5 4.5c-2.2 0-3.9-1.7-3.9-3.9 0-2.2 1.7-3.9 3.9-3.9 1.6 0 2.9.9 3.5 2.2l-1.6.7c-.3-.7-1.1-1.2-1.9-1.2-1.3 0-2.3 1-2.3 2.3 0 1.3 1 2.3 2.3 2.3.8 0 1.6-.5 1.9-1.2l1.6.7c-.6 1.1-1.9 2-3.5 2z" fill="#fff"/>
  <path d="M13.1 8.8l2.2 6.8h-1.8l-.4-1.3h-2.3l-.4 1.3H8.6l2.2-6.8h2.3zm-.5 4.1l-.7-2.1-.7 2.1h1.4zm5.6 2.7h-1.8V8.8h3.6c1.8 0 2.8 1.1 2.8 2.4 0 1-.6 1.8-1.5 2.1l1.6 3h-2l-1.5-2.8h-1.2v2.8zm0-4.3h1.8c.7 0 1.1-.4 1.1-.9s-.4-.9-1.1-.9h-1.8v1.8zm10.5 4.5c-2.2 0-3.9-1.7-3.9-3.9 0-2.2 1.7-3.9 3.9-3.9 1.6 0 2.9.9 3.5 2.2l-1.6.7c-.3-.7-1.1-1.2-1.9-1.2-1.3 0-2.3 1-2.3 2.3 0 1.3 1 2.3 2.3 2.3.8 0 1.6-.5 1.9-1.2l1.6.7c-.6 1.1-1.9 2-3.5 2zm8.2 0c-2.2 0-3.9-1.7-3.9-3.9 0-2.2 1.7-3.9 3.9-3.9 2.2 0 3.9 1.7 3.9 3.9 0 2.2-1.7 3.9-3.9 3.9zm0-6.2c-1.3 0-2.3 1-2.3 2.3 0 1.3 1 2.3 2.3 2.3 1.3 0 2.3-1 2.3-2.3 0-1.3-1-2.3-2.3-2.3z" fill="#fff"/>
</svg>
